<svg xmlns="http://www.w3.org/2000/svg" width="25" height="25" style="width:100%;height:100%;transform:translate3d(0,0,0);content-visibility:visible" viewBox="0 0 500 500"><defs><clipPath id="e"><path d="M0 0h500v500H0z"/></clipPath><clipPath id="j"><path d="M0 0h500v500H0z"/></clipPath><clipPath id="f"><path d="M0 0h500v500H0z"/></clipPath><clipPath id="i"><path fill="#fff" d="m-10.994 10.61.528-10.658 2.977-1.392 2.784.096L.096.576 4.465-.912l2.688.048 3.313.48 1.104 11.618-22.564-.624"/></clipPath><clipPath id="g"><path fill="#fff" d="m-6.433-9.89-4.033 11.906L-7.345.48l2.64-1.824L.096.576 4.465-.912 7.585.48l2.737.672L7.345-9.265-6.433-9.89"/></clipPath><filter id="a" width="100%" height="100%" x="0%" y="0%" filterUnits="objectBoundingBox"><feComponentTransfer in="SourceGraphic"><feFuncA tableValues="1.0 0.0" type="table"/></feComponentTransfer></filter><filter id="c" width="100%" height="100%" x="0%" y="0%" filterUnits="objectBoundingBox"><feComponentTransfer in="SourceGraphic"><feFuncA tableValues="1.0 0.0" type="table"/></feComponentTransfer></filter><mask id="k" mask-type="alpha"><g filter="url(#a)"><path fill="#fff" d="M0 0h500v500H0z" opacity="0"/><use xmlns:ns1="http://www.w3.org/1999/xlink" ns1:href="#b"/></g></mask><mask id="h" mask-type="alpha"><g filter="url(#c)"><path fill="#fff" d="M0 0h500v500H0z" opacity="0"/><use xmlns:ns2="http://www.w3.org/1999/xlink" ns2:href="#d"/></g></mask><g id="b" class="primary design" style="display:none"><path class="primary"/></g><g id="d" class="primary design" style="display:none"><path fill-opacity="0" stroke-linecap="round" stroke-linejoin="round" class="primary"/></g></defs><g clip-path="url(#e)"><g clip-path="url(#f)" style="display:block"><g class="primary design" clip-path="url(#g)" mask="url(#h)" style="display:none"><path class="primary"/></g><g class="primary design" style="display:none"><path fill="none" class="primary"/></g><g class="primary design" clip-path="url(#i)" style="display:none"><path class="primary"/></g><g class="primary design" style="display:block"><path fill="#121330" d="M361.316 83.36H138.684c-8.706 0-16.518 5.416-19.538 13.602L62.53 250v145.81c0 23.017 18.643 41.66 41.66 41.66h291.62c23.017 0 41.66-18.643 41.66-41.66V250L380.854 96.962c-3.02-8.186-10.832-13.602-19.538-13.602zM333.32 250c-11.498 0-20.83 9.332-20.83 20.83v41.66c0 11.498-9.332 20.83-20.83 20.83h-83.32c-11.498 0-20.83-9.332-20.83-20.83v-41.66c0-11.498-9.332-20.83-20.83-20.83h-59.74l46.242-124.98h193.636L393.06 250h-59.74z" class="primary"/></g><g class="primary design" style="display:none"><path class="primary"/></g></g><g clip-path="url(#j)" style="display:none"><g fill="none" class="primary design" style="display:none"><path class="primary"/><path class="primary"/></g><g class="primary design" style="display:none"><path class="primary"/></g><g class="primary design" mask="url(#k)" style="display:none"><path fill="none" class="primary"/></g></g></g></svg>