<?xml version="1.0" standalone="no"?>
<!DOCTYPE svg PUBLIC "-//W3C//DTD SVG 20010904//EN"
 "http://www.w3.org/TR/2001/REC-SVG-20010904/DTD/svg10.dtd">
<svg version="1.0" xmlns="http://www.w3.org/2000/svg"
 width="1666.000000pt" height="686.000000pt" viewBox="0 0 1666.000000 686.000000"
 preserveAspectRatio="xMidYMid meet">

<g transform="translate(0.000000,686.000000) scale(0.100000,-0.100000)"
fill="#000000" stroke="none">
<path d="M8602 5853 l3 -998 308 -3 307 -2 0 695 0 695 495 0 495 0 0 305 0
305 -805 0 -805 0 2 -997z"/>
<path d="M10340 6544 l0 -306 353 4 c387 5 407 8 537 71 96 47 216 169 263
267 32 68 67 198 67 250 0 20 -2 20 -610 20 l-610 0 0 -306z"/>
<path d="M8025 6829 c-139 -20 -312 -90 -430 -174 -80 -57 -191 -173 -248
-260 -30 -45 -231 -485 -568 -1240 -287 -643 -524 -1180 -526 -1192 l-5 -23
320 0 c244 0 322 3 329 13 11 14 1244 2843 1251 2870 5 19 -19 21 -123 6z"/>
<path d="M0 5825 l0 -1005 305 0 305 0 0 700 0 700 500 0 500 0 -2 303 -3 302
-802 3 -803 2 0 -1005z"/>
<path d="M1737 6823 c-4 -3 -7 -141 -7 -305 l0 -298 348 0 c388 0 410 3 542
67 105 51 217 162 265 264 40 86 65 176 65 236 l0 43 -603 0 c-332 0 -607 -3
-610 -7z"/>
<path d="M3412 6813 c5 -16 1941 -4461 2008 -4610 l29 -63 329 0 329 0 31 68
c64 139 422 966 422 974 0 4 -148 8 -328 8 l-328 0 -58 -133 c-32 -72 -61
-135 -65 -139 -3 -3 -346 757 -761 1689 -415 933 -773 1725 -794 1761 -48 80
-179 219 -261 277 -125 88 -270 147 -425 170 -124 19 -133 19 -128 -2z"/>
<path d="M14065 6798 c-994 -112 -1825 -874 -2024 -1858 -44 -218 -57 -513
-31 -725 39 -326 155 -666 321 -941 122 -203 316 -427 514 -592 244 -205 567
-371 882 -453 95 -25 259 -59 286 -59 12 0 8 87 -9 168 -32 156 -111 308 -221
423 -75 79 -140 128 -253 190 -339 186 -575 425 -741 752 -207 405 -243 884
-99 1320 17 50 60 151 95 222 221 440 627 774 1093 899 177 47 287 59 502 53
290 -8 460 -50 715 -177 481 -240 809 -667 922 -1199 24 -114 27 -146 27 -341
0 -195 -3 -227 -27 -341 -62 -293 -186 -547 -378 -776 -121 -144 -305 -296
-459 -380 -153 -84 -205 -118 -272 -181 -159 -150 -252 -341 -274 -562 l-7
-72 49 7 c203 29 479 116 680 215 329 162 617 401 835 692 736 985 585 2368
-346 3166 -361 309 -800 499 -1280 552 -108 12 -388 11 -500 -2z"/>
<path d="M9883 4846 c-90 -29 -148 -81 -188 -169 -24 -51 -27 -68 -23 -135 6
-125 65 -214 177 -266 44 -20 59 -21 426 -21 379 0 380 0 433 24 31 14 70 43
97 73 135 151 90 385 -93 475 l-57 28 -365 2 c-281 2 -375 -1 -407 -11z"/>
<path d="M1232 4800 c-112 -56 -167 -145 -167 -270 0 -118 51 -207 150 -265
70 -41 135 -47 495 -43 l335 3 56 28 c115 56 186 174 176 293 -9 116 -66 202
-169 254 l-61 30 -377 0 -377 0 -61 -30z"/>
<path d="M8607 4173 c-4 -3 -7 -456 -7 -1005 l0 -998 805 0 805 0 0 305 0 305
-495 0 -495 0 -2 698 -3 697 -301 3 c-165 1 -303 -1 -307 -5z"/>
<path d="M0 3145 l0 -1005 803 2 802 3 0 305 0 305 -497 3 -498 2 0 695 0 695
-305 0 -305 0 0 -1005z"/>
<path d="M10340 2475 l0 -305 610 0 610 0 0 38 c0 60 -36 187 -72 255 -42 80
-164 202 -243 244 -128 68 -170 73 -557 73 l-348 0 0 -305z"/>
<path d="M1735 2748 c-3 -7 -4 -146 -3 -308 l3 -295 610 0 610 0 -3 50 c-15
246 -199 469 -447 541 -51 14 -116 18 -413 21 -288 4 -353 2 -357 -9z"/>
<path d="M8200 1000 l0 -580 75 0 75 0 0 268 c0 262 1 270 23 313 15 28 40 54
70 73 100 62 208 37 257 -59 25 -49 25 -53 28 -322 l3 -273 76 0 75 0 -4 283
c-5 313 -11 350 -71 429 -50 65 -114 93 -212 93 -67 -1 -88 -5 -131 -27 -28
-15 -65 -43 -82 -63 l-32 -36 0 241 0 240 -75 0 -75 0 0 -580z"/>
<path d="M13970 1349 l0 -232 -43 40 c-115 106 -315 94 -434 -26 -89 -90 -134
-244 -115 -390 27 -200 143 -327 312 -339 99 -7 170 18 237 83 57 55 63 53 63
-27 l0 -38 65 0 65 0 0 580 0 580 -75 0 -75 0 0 -231z m-127 -253 c50 -21 104
-90 118 -151 6 -29 10 -98 8 -156 -5 -127 -30 -186 -98 -234 -39 -27 -50 -30
-120 -30 -69 0 -82 3 -119 29 -108 75 -144 295 -72 436 22 42 75 95 110 109
37 14 136 13 173 -3z"/>
<path d="M14900 1349 l0 -232 -43 40 c-115 106 -315 94 -434 -26 -89 -90 -134
-244 -115 -390 27 -200 143 -327 312 -339 99 -7 170 18 237 83 57 55 63 53 63
-27 l0 -38 65 0 65 0 0 580 0 580 -75 0 -75 0 0 -231z m-127 -253 c50 -21 104
-90 118 -151 6 -29 10 -98 8 -156 -5 -127 -30 -186 -98 -234 -39 -27 -50 -30
-120 -30 -69 0 -82 3 -119 29 -108 75 -144 295 -72 436 22 42 75 95 110 109
37 14 136 13 173 -3z"/>
<path d="M11740 1524 c-14 -2 -40 -7 -57 -10 l-33 -5 0 -543 0 -543 38 -7 c68
-11 296 -6 363 8 191 41 289 146 289 311 0 113 -72 221 -173 260 l-48 18 50
28 c155 89 177 301 42 408 -76 60 -128 74 -296 77 -82 1 -161 0 -175 -2z m322
-136 c23 -13 53 -39 66 -58 20 -29 23 -45 20 -95 -7 -120 -75 -167 -250 -173
l-108 -4 0 175 0 176 28 4 c15 3 66 4 115 2 68 -3 97 -9 129 -27z m-17 -460
c91 -30 155 -131 141 -222 -20 -122 -122 -186 -294 -186 -111 0 -102 -18 -102
223 l0 210 108 -6 c59 -3 125 -12 147 -19z"/>
<path d="M2518 1468 c16 -29 95 -173 176 -319 l146 -266 0 -232 0 -231 75 0
75 0 0 237 0 236 180 308 c99 169 180 310 180 313 0 3 -36 6 -80 6 l-79 0 -70
-132 c-39 -73 -99 -190 -133 -260 -35 -70 -65 -127 -68 -127 -3 1 -63 117
-134 260 l-129 259 -84 0 -85 0 30 -52z"/>
<path d="M6050 970 l0 -550 70 0 70 0 0 250 0 250 210 0 210 0 0 60 0 60 -210
0 -210 0 0 180 0 180 225 0 225 0 0 60 0 60 -295 0 -295 0 0 -550z"/>
<path d="M9119 1491 c-20 -20 -29 -39 -29 -61 0 -40 47 -90 85 -90 33 0 81 24
89 45 39 102 -70 181 -145 106z"/>
<path d="M3569 1211 c-144 -46 -232 -157 -260 -329 -28 -169 44 -347 172 -428
160 -101 409 -54 519 97 131 181 92 494 -76 609 -97 67 -240 88 -355 51z m193
-103 c96 -29 161 -144 162 -288 0 -104 -20 -170 -71 -230 -118 -137 -317 -88
-380 94 -21 60 -23 190 -5 252 41 138 164 211 294 172z"/>
<path d="M5425 1211 c-45 -20 -91 -65 -116 -111 l-16 -30 -7 31 c-3 17 -6 49
-6 70 l0 39 -66 0 -67 0 7 -52 c3 -29 6 -207 6 -395 l0 -343 69 0 69 0 4 248
c4 241 4 248 30 303 35 77 82 112 159 117 l59 4 0 69 0 69 -42 0 c-24 0 -61
-9 -83 -19z"/>
<path d="M6915 1224 c-54 -14 -122 -38 -142 -50 -21 -13 -21 -15 -6 -62 l16
-50 56 26 c81 37 190 42 250 10 53 -27 81 -75 81 -135 l0 -43 -55 0 c-65 0
-187 -24 -242 -46 -98 -41 -163 -118 -178 -211 -9 -54 16 -141 52 -184 87
-103 283 -105 400 -4 l41 35 7 -45 6 -45 63 0 62 0 -3 273 c-5 373 -23 435
-144 502 -48 26 -65 30 -149 32 -52 1 -104 -1 -115 -3z m265 -479 c0 -115 -34
-179 -115 -216 -118 -55 -238 17 -222 133 13 97 115 153 290 157 l47 1 0 -75z"/>
<path d="M7694 1219 c-53 -15 -126 -71 -147 -113 -46 -88 -28 -196 41 -257 20
-17 82 -53 139 -80 136 -63 167 -110 128 -193 -37 -78 -158 -87 -306 -22 -14
6 -20 -3 -34 -43 -9 -28 -14 -55 -10 -61 12 -20 137 -50 209 -50 180 0 295 93
296 239 0 65 -28 129 -73 167 -18 15 -77 48 -133 74 -59 28 -109 59 -122 75
-57 72 3 165 106 165 35 0 97 -15 143 -34 13 -6 20 3 33 40 9 26 16 51 16 55
0 5 -30 17 -66 29 -69 21 -165 25 -220 9z"/>
<path d="M9699 1211 c-144 -46 -232 -157 -260 -329 -28 -169 44 -347 172 -428
160 -101 409 -54 519 97 131 181 92 494 -76 609 -97 67 -240 88 -355 51z m193
-103 c96 -29 161 -144 162 -288 0 -104 -20 -170 -71 -230 -118 -137 -317 -88
-380 94 -21 60 -23 190 -5 252 41 138 164 211 294 172z"/>
<path d="M10677 1214 c-33 -10 -66 -32 -103 -68 l-54 -52 0 42 c0 70 -4 74
-77 74 l-66 0 7 -46 c3 -26 6 -204 6 -395 l0 -349 75 0 74 0 3 278 3 279 29
41 c33 48 112 92 166 92 61 0 121 -38 150 -95 25 -49 25 -53 28 -322 l3 -273
76 0 75 0 -4 288 c-4 272 -5 290 -27 346 -57 144 -205 209 -364 160z"/>
<path d="M4242 923 c4 -273 5 -291 27 -348 29 -73 98 -145 157 -163 107 -32
230 -3 306 73 51 50 58 46 58 -26 l0 -39 65 0 65 0 0 395 0 395 -75 0 -75 0 0
-252 c0 -155 -4 -269 -11 -293 -15 -55 -82 -120 -139 -135 -90 -24 -167 9
-204 89 -19 43 -21 66 -24 319 l-4 272 -75 0 -75 0 4 -287z"/>
<path d="M9110 815 l0 -395 75 0 75 0 0 395 0 395 -75 0 -75 0 0 -395z"/>
<path d="M12522 923 c4 -273 5 -291 27 -348 29 -73 98 -145 157 -163 107 -32
230 -3 306 73 51 50 58 46 58 -26 l0 -39 65 0 65 0 0 395 0 395 -75 0 -75 0 0
-252 c0 -155 -4 -269 -11 -293 -15 -55 -82 -120 -139 -135 -90 -24 -167 9
-204 89 -19 43 -21 66 -24 319 l-4 272 -75 0 -75 0 4 -287z"/>
<path d="M15183 1193 c2 -10 64 -166 137 -348 180 -449 164 -393 129 -463 -33
-67 -114 -149 -180 -182 -24 -12 -45 -24 -47 -25 -2 -2 4 -28 13 -59 20 -68
31 -70 117 -24 149 79 222 208 429 748 72 190 134 351 136 358 4 9 -15 12 -74
12 l-78 0 -98 -297 c-54 -164 -101 -304 -103 -312 -3 -8 -24 41 -47 110 -24
68 -74 208 -113 311 l-69 188 -79 0 c-70 0 -78 -2 -73 -17z"/>
</g>
</svg>
